<svg xmlns="http://www.w3.org/2000/svg" width="194.48" height="35" viewBox="0 0 194.48 35"><rect class="svg__rect" x="0" y="0" width="102.25" height="35" fill="#EF4041"/><rect class="svg__rect" x="100.25" y="0" width="94.22999999999999" height="35" fill="#C1282D"/><path class="svg__text" d="M17.33 22L14.22 22L14.22 13.47L17.14 13.47Q18.59 13.47 19.34 14.05Q20.10 14.63 20.10 15.78L20.10 15.78Q20.10 16.36 19.78 16.83Q19.47 17.30 18.86 17.56L18.86 17.56Q19.55 17.75 19.93 18.26Q20.31 18.78 20.31 19.51L20.31 19.51Q20.31 20.71 19.53 21.36Q18.76 22 17.33 22L17.33 22ZM15.70 18.15L15.70 20.82L17.35 20.82Q18.04 20.82 18.44 20.47Q18.83 20.13 18.83 19.51L18.83 19.51Q18.83 18.18 17.47 18.15L17.47 18.15L15.70 18.15ZM15.70 14.66L15.70 17.06L17.15 17.06Q17.84 17.06 18.23 16.75Q18.62 16.43 18.62 15.86L18.62 15.86Q18.62 15.23 18.26 14.95Q17.90 14.66 17.14 14.66L17.14 14.66L15.70 14.66ZM26.34 22L24.86 22L24.86 13.47L26.34 13.47L26.34 22ZM32.63 22L31.15 22L31.15 13.47L32.63 13.47L36.45 19.54L36.45 13.47L37.92 13.47L37.92 22L36.44 22L32.63 15.95L32.63 22ZM45.11 22L42.66 22L42.66 13.47L45.18 13.47Q46.31 13.47 47.18 13.97Q48.06 14.48 48.54 15.40Q49.02 16.33 49.02 17.52L49.02 17.52L49.02 17.95Q49.02 19.16 48.54 20.08Q48.06 21.00 47.16 21.50Q46.27 22 45.11 22L45.11 22ZM44.14 14.66L44.14 20.82L45.11 20.82Q46.27 20.82 46.90 20.09Q47.52 19.36 47.53 17.99L47.53 17.99L47.53 17.52Q47.53 16.13 46.93 15.40Q46.33 14.66 45.18 14.66L45.18 14.66L44.14 14.66ZM55.05 22L53.57 22L53.57 13.47L55.05 13.47L55.05 22ZM61.34 22L59.86 22L59.86 13.47L61.34 13.47L65.16 19.54L65.16 13.47L66.63 13.47L66.63 22L65.15 22L61.34 15.95L61.34 22ZM71.12 18.13L71.12 18.13L71.12 17.46Q71.12 15.53 72.05 14.44Q72.97 13.35 74.63 13.35L74.63 13.35Q76.06 13.35 76.89 14.05Q77.73 14.76 77.90 16.08L77.90 16.08L76.45 16.08Q76.20 14.54 74.66 14.54L74.66 14.54Q73.67 14.54 73.15 15.26Q72.63 15.98 72.61 17.37L72.61 17.37L72.61 18.02Q72.61 19.40 73.19 20.17Q73.78 20.93 74.81 20.93L74.81 20.93Q75.95 20.93 76.43 20.42L76.43 20.42L76.43 18.75L74.67 18.75L74.67 17.62L77.91 17.62L77.91 20.89Q77.45 21.50 76.63 21.81Q75.81 22.12 74.76 22.12L74.76 22.12Q73.69 22.12 72.86 21.63Q72.04 21.14 71.59 20.24Q71.14 19.33 71.12 18.13ZM82.09 19.42L82.09 19.42L83.57 19.42Q83.57 20.15 84.06 20.55Q84.54 20.95 85.43 20.95L85.43 20.95Q86.21 20.95 86.60 20.63Q86.98 20.32 86.98 19.80L86.98 19.80Q86.98 19.24 86.59 18.94Q86.19 18.63 85.16 18.32Q84.13 18.01 83.52 17.63L83.52 17.63Q82.36 16.90 82.36 15.72L82.36 15.72Q82.36 14.69 83.20 14.02Q84.04 13.35 85.38 13.35L85.38 13.35Q86.27 13.35 86.97 13.68Q87.66 14.01 88.06 14.61Q88.46 15.22 88.46 15.96L88.46 15.96L86.98 15.96Q86.98 15.29 86.57 14.91Q86.15 14.54 85.37 14.54L85.37 14.54Q84.64 14.54 84.24 14.85Q83.84 15.16 83.84 15.71L83.84 15.71Q83.84 16.18 84.27 16.50Q84.71 16.81 85.70 17.10Q86.70 17.40 87.30 17.78Q87.90 18.16 88.19 18.65Q88.47 19.13 88.47 19.79L88.47 19.79Q88.47 20.86 87.65 21.49Q86.83 22.12 85.43 22.12L85.43 22.12Q84.51 22.12 83.73 21.77Q82.95 21.43 82.52 20.83Q82.09 20.22 82.09 19.42Z" fill="#FFFFFF"/><path class="svg__text" d="M114.37 18.26L114.37 18.26L114.37 13.60L116.75 13.60L116.75 18.19Q116.75 20.20 118.34 20.20L118.34 20.20Q119.92 20.20 119.92 18.19L119.92 18.19L119.92 13.60L122.27 13.60L122.27 18.26Q122.27 20.13 121.23 21.15Q120.19 22.17 118.32 22.17L118.32 22.17Q116.44 22.17 115.40 21.15Q114.37 20.13 114.37 18.26ZM129.68 22L127.35 22L127.35 13.60L129.31 13.60L133.02 18.07L133.02 13.60L135.34 13.60L135.34 22L133.39 22L129.68 17.52L129.68 22ZM139.92 21.24L139.92 21.24L140.70 19.49Q141.26 19.86 142.01 20.09Q142.75 20.32 143.47 20.32L143.47 20.32Q144.84 20.32 144.84 19.64L144.84 19.64Q144.84 19.28 144.45 19.11Q144.06 18.93 143.20 18.74L143.20 18.74Q142.25 18.53 141.61 18.30Q140.97 18.06 140.52 17.55Q140.07 17.03 140.07 16.16L140.07 16.16Q140.07 15.39 140.49 14.77Q140.90 14.15 141.74 13.79Q142.57 13.43 143.78 13.43L143.78 13.43Q144.61 13.43 145.41 13.62Q146.22 13.80 146.83 14.17L146.83 14.17L146.10 15.93Q144.90 15.28 143.77 15.28L143.77 15.28Q143.06 15.28 142.74 15.49Q142.42 15.70 142.42 16.04L142.42 16.04Q142.42 16.37 142.80 16.54Q143.18 16.71 144.03 16.89L144.03 16.89Q144.99 17.10 145.62 17.33Q146.25 17.56 146.72 18.07Q147.18 18.58 147.18 19.46L147.18 19.46Q147.18 20.21 146.76 20.83Q146.34 21.44 145.50 21.80Q144.66 22.17 143.46 22.17L143.46 22.17Q142.44 22.17 141.48 21.92Q140.52 21.67 139.92 21.24ZM153.17 22L150.75 22L154.46 13.60L156.80 13.60L160.52 22L158.05 22L157.39 20.37L153.84 20.37L153.17 22ZM155.61 15.93L154.53 18.61L156.69 18.61L155.61 15.93ZM167.05 22L164.67 22L164.67 13.60L171.26 13.60L171.26 15.44L167.05 15.44L167.05 17.28L170.76 17.28L170.76 19.12L167.05 19.12L167.05 22ZM182.60 22L175.86 22L175.86 13.60L182.45 13.60L182.45 15.44L178.21 15.44L178.21 16.85L181.94 16.85L181.94 18.63L178.21 18.63L178.21 20.17L182.60 20.17L182.60 22Z" fill="#FFFFFF" x="113.25"/></svg>