<svg xmlns="http://www.w3.org/2000/svg" width="178.61" height="35"><path fill="#c1282d" d="M34.557 0H178.61v35H34.557z"/><path fill="#ef4041" d="M0 0h110.889v35H0z"/><path d="M138.745 18.456a1.584 1.584 0 00.407 1.138 1.337 1.337 0 001.015.431 1.27 1.27 0 00.983-.425 1.651 1.651 0 00.384-1.144v-4.918h2.487v4.918a3.763 3.763 0 01-.472 1.921 3.194 3.194 0 01-1.346 1.267 4.4 4.4 0 01-2.036.449 4.487 4.487 0 01-2.053-.449 3.255 3.255 0 01-1.37-1.267 3.68 3.68 0 01-.486-1.92v-4.92h2.49v4.92zm15.112-2.214a8.05 8.05 0 00-1.466-.669 4.217 4.217 0 00-1.317-.276.88.88 0 00-.507.127.41.41 0 00-.185.363.587.587 0 00.364.522 6.484 6.484 0 001.126.408 11.021 11.021 0 011.466.51 2.64 2.64 0 011 .783 2.135 2.135 0 01.426 1.388 2.346 2.346 0 01-.46 1.466 2.751 2.751 0 01-1.244.903 4.9 4.9 0 01-1.76.293 6.745 6.745 0 01-2.164-.357 6.033 6.033 0 01-1.871-1l.932-1.892a5.517 5.517 0 001.552.93 4.282 4.282 0 001.583.378 1.088 1.088 0 00.634-.155.504.504 0 00.229-.443.587.587 0 00-.373-.531 6.083 6.083 0 00-1.147-.39 10.535 10.535 0 01-1.448-.472 2.59 2.59 0 01-.995-.76 2.08 2.08 0 01-.419-1.352 2.384 2.384 0 01.428-1.42 2.733 2.733 0 011.217-.926 4.78 4.78 0 011.824-.323 6.745 6.745 0 011.877.27 6.27 6.27 0 011.628.71l-.92 1.915zM36.76 21.972v-8.505h2.513a3.989 3.989 0 011.994.499 3.414 3.414 0 011.355 1.425 4.54 4.54 0 01.478 2.112v.48a4.467 4.467 0 01-.478 2.121 3.387 3.387 0 01-1.375 1.417 4.124 4.124 0 01-1.994.498zm-15.057 0h-1.467v-2.8l.15-3.748-2.543 6.549h-1.059l-2.501-6.55.15 3.749v2.8h-1.467v-8.505h1.915l2.452 6.508 2.452-6.52h1.918zm11.473 0h-1.543l-.718-1.994h-3.306l-.698 1.995h-1.504l3.226-8.506h1.282zm19.553-7.308h-4.045v2.323h3.49v1.173h-3.49v2.622h4.086v1.173h-5.552V13.45h5.522zm12.28 7.306h-1.426l-1.994-8.506h1.507l1.314 6.388 1.625-6.388h1.238l1.604 6.4 1.305-6.4h1.466l-1.994 8.506h-1.376l-1.616-6.206zm11.912 0h-1.466v-8.506h1.466zm10.426-7.332h-2.621v7.332H83.23v-7.306h-2.64v-1.205h6.746zm5.224 7.332h-1.467v-8.506h1.467v3.52h3.795v-3.52h1.466v8.506h-1.466v-3.787h-3.813zm72.355-6.453h-2.449v6.409h-2.493v-6.403h-2.428v-1.985h7.37zm-37.247 6.403h-2.49v-8.382h3.913c1.126 0 1.997.26 2.616.777a2.713 2.713 0 01.927 2.203 3.314 3.314 0 01-.376 1.598 2.719 2.719 0 01-1.047 1.07l1.698 2.74h-2.824l-1.112-2.262h-1.316v2.262zm-89.45-1.138h.997a2.229 2.229 0 001.786-.73 3.185 3.185 0 00.587-2.071v-.47a3.27 3.27 0 00-.587-2.114 2.147 2.147 0 00-1.76-.727l-1.017-.006zm-10.21-2.012h2.462l-1.235-3.52zm101.08-3.317h-1.423v2.296h1.423a1.173 1.173 0 00.88-.293 1.144 1.144 0 00.293-.86 1.109 1.109 0 00-.293-.844 1.197 1.197 0 00-.88-.3z" fill="#fff"/></svg>